<mxfile host="app.diagrams.net" agent="Mozilla/5.0 (Macintosh; Intel Mac OS X 10.15; rv:129.0) Gecko/20100101 Firefox/129.0" version="24.7.8">
  <diagram name="Page-1" id="JTN_YmU6QN2MSk76uPGW">
    <mxGraphModel dx="1570" dy="936" grid="1" gridSize="10" guides="1" tooltips="1" connect="1" arrows="1" fold="1" page="1" pageScale="1" pageWidth="850" pageHeight="1100" math="0" shadow="0">
      <root>
        <mxCell id="0" />
        <mxCell id="1" parent="0" />
        <mxCell id="t9dlJMMwJ0cxzwzTNBsP-29" value="" style="rounded=0;whiteSpace=wrap;html=1;" vertex="1" parent="1">
          <mxGeometry x="190" y="140" width="570" height="660" as="geometry" />
        </mxCell>
        <mxCell id="t9dlJMMwJ0cxzwzTNBsP-33" style="edgeStyle=orthogonalEdgeStyle;rounded=0;orthogonalLoop=1;jettySize=auto;html=1;entryX=0.5;entryY=0;entryDx=0;entryDy=0;exitX=0.25;exitY=1;exitDx=0;exitDy=0;" edge="1" parent="1" source="t9dlJMMwJ0cxzwzTNBsP-2" target="t9dlJMMwJ0cxzwzTNBsP-1">
          <mxGeometry relative="1" as="geometry">
            <Array as="points">
              <mxPoint x="270" y="240" />
            </Array>
          </mxGeometry>
        </mxCell>
        <mxCell id="t9dlJMMwJ0cxzwzTNBsP-38" value="LAN" style="edgeLabel;html=1;align=center;verticalAlign=middle;resizable=0;points=[];" vertex="1" connectable="0" parent="t9dlJMMwJ0cxzwzTNBsP-33">
          <mxGeometry x="-0.3" y="3" relative="1" as="geometry">
            <mxPoint as="offset" />
          </mxGeometry>
        </mxCell>
        <mxCell id="t9dlJMMwJ0cxzwzTNBsP-34" style="edgeStyle=orthogonalEdgeStyle;rounded=0;orthogonalLoop=1;jettySize=auto;html=1;exitX=0.5;exitY=1;exitDx=0;exitDy=0;" edge="1" parent="1" source="t9dlJMMwJ0cxzwzTNBsP-2" target="t9dlJMMwJ0cxzwzTNBsP-22">
          <mxGeometry relative="1" as="geometry">
            <Array as="points">
              <mxPoint x="400" y="440" />
              <mxPoint x="570" y="440" />
            </Array>
          </mxGeometry>
        </mxCell>
        <mxCell id="t9dlJMMwJ0cxzwzTNBsP-1" value="&lt;div&gt;Tower-Proxmox&lt;br&gt;192.168.0.127:8006&lt;/div&gt;" style="image;html=1;image=img/lib/clip_art/computers/Server_Tower_128x128.png" vertex="1" parent="1">
          <mxGeometry x="230" y="650" width="80" height="80" as="geometry" />
        </mxCell>
        <mxCell id="t9dlJMMwJ0cxzwzTNBsP-51" style="edgeStyle=orthogonalEdgeStyle;rounded=0;orthogonalLoop=1;jettySize=auto;html=1;" edge="1" parent="1" source="t9dlJMMwJ0cxzwzTNBsP-2" target="t9dlJMMwJ0cxzwzTNBsP-7">
          <mxGeometry relative="1" as="geometry">
            <Array as="points">
              <mxPoint x="400" y="550" />
              <mxPoint x="400" y="550" />
            </Array>
          </mxGeometry>
        </mxCell>
        <mxCell id="t9dlJMMwJ0cxzwzTNBsP-2" value="TP-LINK AX5400 Router&lt;br&gt;Saturn&lt;br&gt;192.168.0.1&lt;br&gt;&lt;div&gt;255.255.255.0&lt;/div&gt;&lt;div&gt;&lt;br&gt;&lt;/div&gt;" style="image;html=1;image=img/lib/clip_art/networking/Router_128x128.png" vertex="1" parent="1">
          <mxGeometry x="360" y="190" width="80" height="50" as="geometry" />
        </mxCell>
        <mxCell id="t9dlJMMwJ0cxzwzTNBsP-41" style="edgeStyle=orthogonalEdgeStyle;rounded=0;orthogonalLoop=1;jettySize=auto;html=1;" edge="1" parent="1" source="t9dlJMMwJ0cxzwzTNBsP-3" target="t9dlJMMwJ0cxzwzTNBsP-39">
          <mxGeometry relative="1" as="geometry">
            <Array as="points">
              <mxPoint x="640" y="170" />
              <mxPoint x="600" y="170" />
            </Array>
          </mxGeometry>
        </mxCell>
        <mxCell id="t9dlJMMwJ0cxzwzTNBsP-52" style="edgeStyle=orthogonalEdgeStyle;rounded=0;orthogonalLoop=1;jettySize=auto;html=1;startArrow=classic;startFill=1;endArrow=none;endFill=0;" edge="1" parent="1" source="t9dlJMMwJ0cxzwzTNBsP-3" target="t9dlJMMwJ0cxzwzTNBsP-2">
          <mxGeometry relative="1" as="geometry" />
        </mxCell>
        <mxCell id="t9dlJMMwJ0cxzwzTNBsP-3" value="&lt;div&gt;Internet&lt;/div&gt;" style="image;html=1;image=img/lib/clip_art/general/Earth_globe_128x128.png" vertex="1" parent="1">
          <mxGeometry x="600" y="20" width="80" height="80" as="geometry" />
        </mxCell>
        <mxCell id="t9dlJMMwJ0cxzwzTNBsP-7" value="&lt;div&gt;QNAP TS-230&lt;br&gt;Apollo&lt;/div&gt;&lt;div&gt;192.168.0.232:80&lt;/div&gt;&lt;div&gt;&lt;br&gt;&lt;/div&gt;" style="sketch=0;pointerEvents=1;shadow=0;dashed=0;html=1;strokeColor=none;fillColor=#005F4B;labelPosition=center;verticalLabelPosition=bottom;verticalAlign=top;align=center;outlineConnect=0;shape=mxgraph.veeam2.nas;" vertex="1" parent="1">
          <mxGeometry x="371" y="650" width="78" height="78" as="geometry" />
        </mxCell>
        <mxCell id="t9dlJMMwJ0cxzwzTNBsP-22" value="Ali&#39;s iPhone&lt;br&gt;&lt;div&gt;192.160.0.150&lt;/div&gt;&lt;div&gt;&lt;br&gt;&lt;/div&gt;" style="image;html=1;image=img/lib/clip_art/telecommunication/iPhone_128x128.png" vertex="1" parent="1">
          <mxGeometry x="530" y="657" width="80" height="80" as="geometry" />
        </mxCell>
        <mxCell id="t9dlJMMwJ0cxzwzTNBsP-49" style="edgeStyle=orthogonalEdgeStyle;rounded=0;orthogonalLoop=1;jettySize=auto;html=1;" edge="1" parent="1" source="t9dlJMMwJ0cxzwzTNBsP-25" target="t9dlJMMwJ0cxzwzTNBsP-44">
          <mxGeometry relative="1" as="geometry">
            <Array as="points">
              <mxPoint x="715" y="920" />
            </Array>
          </mxGeometry>
        </mxCell>
        <mxCell id="t9dlJMMwJ0cxzwzTNBsP-25" value="&lt;div&gt;Other Devices&lt;/div&gt;&lt;div&gt;Dynamic DHCP&lt;br&gt;&lt;/div&gt;" style="sketch=0;aspect=fixed;pointerEvents=1;shadow=0;dashed=0;html=1;strokeColor=none;labelPosition=center;verticalLabelPosition=bottom;verticalAlign=top;align=center;fillColor=#00188D;shape=mxgraph.mscae.enterprise.device" vertex="1" parent="1">
          <mxGeometry x="690" y="694" width="50" height="26" as="geometry" />
        </mxCell>
        <mxCell id="t9dlJMMwJ0cxzwzTNBsP-35" style="edgeStyle=orthogonalEdgeStyle;rounded=0;orthogonalLoop=1;jettySize=auto;html=1;entryX=0.48;entryY=0.346;entryDx=0;entryDy=0;entryPerimeter=0;exitX=0.5;exitY=1;exitDx=0;exitDy=0;" edge="1" parent="1" source="t9dlJMMwJ0cxzwzTNBsP-2" target="t9dlJMMwJ0cxzwzTNBsP-25">
          <mxGeometry relative="1" as="geometry">
            <Array as="points">
              <mxPoint x="400" y="340" />
              <mxPoint x="714" y="340" />
            </Array>
          </mxGeometry>
        </mxCell>
        <mxCell id="t9dlJMMwJ0cxzwzTNBsP-36" value="&lt;div&gt;WiFi&lt;/div&gt;" style="edgeLabel;html=1;align=center;verticalAlign=middle;resizable=0;points=[];" vertex="1" connectable="0" parent="t9dlJMMwJ0cxzwzTNBsP-35">
          <mxGeometry x="-0.8811" y="3" relative="1" as="geometry">
            <mxPoint as="offset" />
          </mxGeometry>
        </mxCell>
        <mxCell id="t9dlJMMwJ0cxzwzTNBsP-42" style="edgeStyle=orthogonalEdgeStyle;rounded=0;orthogonalLoop=1;jettySize=auto;html=1;entryX=1;entryY=0.5;entryDx=0;entryDy=0;startArrow=none;startFill=0;endArrow=classic;endFill=1;" edge="1" parent="1" source="t9dlJMMwJ0cxzwzTNBsP-39" target="t9dlJMMwJ0cxzwzTNBsP-2">
          <mxGeometry relative="1" as="geometry">
            <Array as="points">
              <mxPoint x="560" y="215" />
              <mxPoint x="560" y="215" />
            </Array>
          </mxGeometry>
        </mxCell>
        <mxCell id="t9dlJMMwJ0cxzwzTNBsP-39" value="&lt;div&gt;OpenVPN Server&lt;br&gt;Port 1194&lt;br&gt;VPN Subnet 10.7.0.0&lt;br&gt;Network 255.255.255.0&lt;/div&gt;&lt;div&gt;Internet and Home Network&lt;br&gt;&lt;/div&gt;" style="sketch=0;pointerEvents=1;shadow=0;dashed=0;html=1;strokeColor=none;fillColor=#005F4B;labelPosition=center;verticalLabelPosition=bottom;verticalAlign=top;align=center;outlineConnect=0;shape=mxgraph.veeam2.vpn_server;" vertex="1" parent="1">
          <mxGeometry x="580" y="200" width="40" height="52" as="geometry" />
        </mxCell>
        <mxCell id="t9dlJMMwJ0cxzwzTNBsP-47" style="edgeStyle=orthogonalEdgeStyle;rounded=0;orthogonalLoop=1;jettySize=auto;html=1;startArrow=classic;startFill=1;" edge="1" parent="1" source="t9dlJMMwJ0cxzwzTNBsP-44" target="t9dlJMMwJ0cxzwzTNBsP-7">
          <mxGeometry relative="1" as="geometry">
            <mxPoint x="169.8900000000001" y="850" as="targetPoint" />
            <Array as="points">
              <mxPoint x="465" y="820" />
              <mxPoint x="410" y="820" />
            </Array>
          </mxGeometry>
        </mxCell>
        <mxCell id="t9dlJMMwJ0cxzwzTNBsP-48" style="edgeStyle=orthogonalEdgeStyle;rounded=0;orthogonalLoop=1;jettySize=auto;html=1;startArrow=classic;startFill=1;" edge="1" parent="1" source="t9dlJMMwJ0cxzwzTNBsP-44" target="t9dlJMMwJ0cxzwzTNBsP-22">
          <mxGeometry relative="1" as="geometry" />
        </mxCell>
        <mxCell id="t9dlJMMwJ0cxzwzTNBsP-44" value="&lt;div&gt;Tailscale&lt;/div&gt;&lt;div&gt;&lt;br&gt;&lt;/div&gt;" style="sketch=0;outlineConnect=0;fontColor=#232F3E;gradientColor=none;fillColor=#8C4FFF;strokeColor=none;dashed=0;verticalLabelPosition=bottom;verticalAlign=top;align=center;html=1;fontSize=12;fontStyle=0;aspect=fixed;pointerEvents=1;shape=mxgraph.aws4.mesh;" vertex="1" parent="1">
          <mxGeometry x="415.11" y="870" width="99.78" height="98.5" as="geometry" />
        </mxCell>
      </root>
    </mxGraphModel>
  </diagram>
</mxfile>
